<?xml version="1.0" standalone="no"?><!DOCTYPE svg PUBLIC "-//W3C//DTD SVG 1.1//EN" "http://www.w3.org/Graphics/SVG/1.1/DTD/svg11.dtd"><svg t="1744610630272" class="icon" viewBox="0 0 1024 1024" version="1.1" xmlns="http://www.w3.org/2000/svg" p-id="1477" xmlns:xlink="http://www.w3.org/1999/xlink" width="512" height="512"><path d="M475.4944 806.4h-37.5296a321.1776 321.1776 0 0 1-321.1776-321.1264V311.4496a32.4608 32.4608 0 0 1 32.4096-32.4096h615.0144a32.4096 32.4096 0 0 1 32.4096 32.4096v174.08a321.1264 321.1264 0 0 1-321.1264 320.8704z" fill="#94E0DE" p-id="1478"></path><path d="M456.704 728.5248a256.7168 256.7168 0 0 1-256.7168-256.7168V279.04h513.4336v192.768a256.7168 256.7168 0 0 1-256.7168 256.7168z" fill="#B3F4EF" p-id="1479"></path><path d="M198.5536 292.5056v178.1248c0 69.12 4.2496 202.9056 195.2256 250.1632a306.8928 306.8928 0 0 1-123.904-247.9616V288.8704z" fill="#E9FFFF" p-id="1480"></path><path d="M830.0032 352.768h-7.7824v-41.3184a58.0608 58.0608 0 0 0-58.0096-58.0096H149.1968a58.112 58.112 0 0 0-58.0096 58.0096v174.08a347.136 347.136 0 0 0 346.7776 346.4704h37.5296a347.2384 347.2384 0 0 0 333.1584-250.88h21.3504a114.176 114.176 0 1 0 0-228.3008z m-354.5088 428.032h-37.5296a295.8848 295.8848 0 0 1-295.5776-295.5264V311.4496a6.8608 6.8608 0 0 1 6.8096-6.8096h615.0144a6.8608 6.8608 0 0 1 6.8096 6.8096v174.08a295.8848 295.8848 0 0 1-295.5264 295.2704z m354.5088-250.88H819.2a346.368 346.368 0 0 0 2.9696-44.5952V403.968h7.7824a62.976 62.976 0 1 1 0 125.9008zM324.4544 208.0768a25.6 25.6 0 0 1-25.6-25.6V102.4a25.6 25.6 0 0 1 51.2 0v80.0768a25.6 25.6 0 0 1-25.6 25.6zM455.68 208.0768a25.6 25.6 0 0 1-25.6-25.6V102.4a25.6 25.6 0 1 1 51.2 0v80.0768a25.6 25.6 0 0 1-25.6 25.6zM587.1616 208.0768a25.6 25.6 0 0 1-25.6-25.6V102.4a25.6 25.6 0 0 1 51.2 0v80.0768a25.6 25.6 0 0 1-25.6 25.6zM774.5536 931.3792H160.512a25.6 25.6 0 1 1 0-51.2h614.0416a25.6 25.6 0 0 1 0 51.2z" fill="#434A54" p-id="1481"></path></svg>